<svg width="56" height="56" viewBox="0 0 56 56" fill="none" xmlns="http://www.w3.org/2000/svg">
<rect width="56" height="56" fill="#131A23"/>
<path d="M24.2147 21.5021C27.3971 21.5021 28.8833 23.3977 28.8833 26.7515V32.7299C26.5927 34.2428 24.9491 34.826 22.9558 34.826C20.875 34.826 19.6336 33.8964 19.6336 32.2013C19.6336 30.087 21.3646 29.3397 24.8092 29.3397C25.3338 29.3397 26.1031 29.3761 26.4354 29.4126V26.0588C25.6835 25.9677 24.9316 25.913 24.1798 25.913C18.9866 25.913 15 28.2643 15 32.4383C15 36.6487 17.6228 39 22.4487 39C24.7043 39 27.2572 38.034 29.1106 36.7581L29.6352 38.2709C29.6876 38.4714 29.8625 38.599 30.0723 38.5808H33.6568V26.6785C33.6568 20.8094 30.5794 17 24.8092 17C20.8925 17 17.8501 18.6587 16.0666 20.9006L19.2839 23.2154C20.3155 22.4863 21.1723 22.0489 21.8018 21.8302C22.5886 21.5932 23.3929 21.4838 24.2147 21.5021Z" fill="white"/>
<path d="M41.5833 35.1333H38.05V38.7342H41.5833V35.1333Z" fill="#009BEC"/>
<path d="M41.5833 22.3965H38.05V25.9974H41.5833V22.3965Z" fill="#009BEC"/>
</svg>
